<?xml version="1.0" standalone="no"?>
<!DOCTYPE svg PUBLIC "-//W3C//DTD SVG 20010904//EN"
 "http://www.w3.org/TR/2001/REC-SVG-20010904/DTD/svg10.dtd">
<svg version="1.0" xmlns="http://www.w3.org/2000/svg"
 width="282.000000pt" height="179.000000pt" viewBox="0 0 282.000000 179.000000"
 preserveAspectRatio="xMidYMid meet">

<g transform="translate(0.000000,179.000000) scale(0.100000,-0.100000)"
fill="#000000" stroke="none">
<path d="M997 1543 c-12 -12 -7 -63 9 -96 l16 -32 -36 34 c-34 33 -36 34 -36
12 0 -12 7 -36 16 -53 9 -16 11 -27 5 -24 -14 9 -14 -6 0 -41 11 -26 13 -34
17 -74 1 -8 18 -34 38 -58 20 -23 34 -44 31 -47 -7 -8 -164 31 -227 56 -29 11
-66 30 -81 41 -34 24 -39 24 -39 0 0 -25 35 -68 72 -87 42 -22 29 -27 -22 -9
-23 8 -47 15 -51 15 -19 0 26 -52 60 -70 20 -11 30 -19 22 -20 -17 0 92 -106
129 -125 14 -7 42 -16 63 -20 29 -6 42 -16 64 -51 16 -25 39 -47 53 -51 22 -6
23 -7 5 -13 -16 -6 -12 -10 26 -27 28 -12 76 -51 120 -95 97 -99 153 -122 290
-123 93 0 99 1 175 40 l79 40 3 188 2 187 -111 0 c-101 0 -116 -2 -155 -25
-39 -23 -84 -89 -84 -123 0 -7 30 -12 88 -14 l87 -3 3 -50 c4 -62 -11 -75 -87
-75 -203 1 -299 241 -147 367 47 38 96 53 178 53 107 0 173 35 204 107 29 67
32 66 -153 60 -184 -5 -212 -10 -295 -61 l-56 -34 -105 107 c-57 58 -116 127
-131 154 -30 51 -29 50 -39 40z m155 -222 c27 -39 21 -47 -8 -12 -14 17 -30
29 -34 26 -13 -8 -90 104 -90 131 0 9 109 -110 132 -145z m-38 -8 c-9 24 3 21
17 -4 8 -15 8 -19 0 -15 -17 11 -13 -10 4 -24 17 -14 21 -35 5 -25 -14 8 -13
-8 1 -22 13 -13 3 -36 -12 -28 -5 4 -9 2 -9 -4 0 -5 5 -13 10 -16 16 -10 3
-22 -22 -21 -14 1 -38 21 -65 55 -47 57 -50 80 -6 40 26 -23 25 -22 -4 16 -16
22 -36 51 -43 65 l-13 25 24 -20 c51 -42 89 -79 89 -88 0 -5 -8 -3 -17 4 -10
7 -5 -1 11 -19 31 -33 43 -41 30 -19 -5 8 -2 8 9 -2 32 -26 17 1 -29 53 -51
56 -114 145 -114 161 0 5 32 -22 71 -60 38 -39 67 -62 63 -52z m-238 -133 c76
-20 184 -64 184 -74 0 -3 -25 4 -57 15 -66 22 -77 24 -43 4 40 -23 6 -17 -62
10 -35 14 -76 37 -93 51 -16 14 -25 23 -19 20 6 -3 46 -14 90 -26z m20 -65
c51 -13 107 -31 125 -40 36 -16 37 -16 -48 0 -16 3 0 -5 35 -19 35 -13 66 -27
69 -30 29 -29 -239 63 -292 100 -19 14 -19 14 0 14 11 0 61 -11 111 -25z m157
-104 c16 -6 25 -15 22 -21 -3 -5 -1 -10 5 -10 6 0 8 -4 5 -10 -3 -5 2 -10 12
-10 15 0 15 -2 4 -9 -11 -7 -7 -10 15 -14 28 -4 28 -4 -5 -6 -40 -1 -144 25
-186 47 -29 16 -30 16 -6 20 20 3 14 8 -33 29 -31 14 -56 29 -56 33 0 8 175
-31 223 -49z m80 -101 c9 0 17 -5 17 -11 0 -14 -60 -4 -75 13 -7 8 -3 9 15 4
14 -3 33 -6 43 -6z m22 -39 c3 -5 1 -12 -5 -16 -14 -9 -52 4 -45 16 8 12 42
12 50 0z m15 -40 c0 -14 -18 -23 -30 -16 -6 4 -8 11 -5 16 8 12 35 12 35 0z"/>
<path d="M1080 1376 c0 -2 8 -10 18 -17 15 -13 16 -12 3 4 -13 16 -21 21 -21
13z"/>
<path d="M1085 1298 c22 -26 41 -45 44 -42 3 2 -15 24 -38 47 l-44 42 38 -47z"/>
<path d="M1073 1194 c15 -17 34 -31 42 -31 13 0 12 3 -2 19 -9 10 -18 16 -21
13 -3 -3 -15 3 -26 12 -12 10 -9 4 7 -13z"/>
<path d="M1048 993 c7 -3 16 -2 19 1 4 3 -2 6 -13 5 -11 0 -14 -3 -6 -6z"/>
<path d="M1048 953 c7 -3 16 -2 19 1 4 3 -2 6 -13 5 -11 0 -14 -3 -6 -6z"/>
<path d="M937 379 c7 -7 15 -10 18 -7 3 3 -2 9 -12 12 -14 6 -15 5 -6 -5z"/>
<path d="M1060 358 c0 -23 3 -29 9 -19 5 7 14 10 20 7 6 -4 11 -1 11 8 0 10
-6 13 -15 10 -8 -4 -15 -2 -15 4 0 6 6 13 13 15 7 3 5 6 -5 6 -14 1 -18 -7
-18 -31z"/>
<path d="M1210 360 c0 -26 2 -29 14 -18 8 7 10 15 5 16 -15 6 -10 20 9 25 13
4 11 5 -5 6 -19 1 -23 -4 -23 -29z"/>
<path d="M1370 381 c0 -5 5 -13 10 -16 6 -3 10 -2 10 4 0 5 -4 13 -10 16 -5 3
-10 2 -10 -4z"/>
<path d="M1506 382 c7 -4 14 -18 16 -32 3 -23 4 -22 9 8 5 27 3 32 -15 32 -13
0 -17 -3 -10 -8z"/>
<path d="M1795 369 c-7 -22 -8 -22 -21 -4 -8 10 -14 14 -14 9 0 -6 6 -18 13
-28 12 -16 14 -16 25 9 7 15 11 30 8 32 -2 2 -7 -6 -11 -18z"/>
<path d="M1910 360 c0 -26 2 -29 14 -18 8 7 10 15 5 16 -15 6 -10 20 9 25 13
4 11 5 -5 6 -19 1 -23 -4 -23 -29z"/>
<path d="M1652 355 c0 -16 2 -22 5 -12 2 9 2 23 0 30 -3 6 -5 -1 -5 -18z"/>
</g>
</svg>
