<?xml version="1.0" standalone="no"?>
<!DOCTYPE svg PUBLIC "-//W3C//DTD SVG 20010904//EN"
 "http://www.w3.org/TR/2001/REC-SVG-20010904/DTD/svg10.dtd">
<svg version="1.0" xmlns="http://www.w3.org/2000/svg"
 width="216.000000pt" height="233.000000pt" viewBox="0 0 216.000000 233.000000"
 preserveAspectRatio="xMidYMid meet">

<g transform="translate(0.000000,233.000000) scale(0.100000,-0.100000)"
fill="#000000" stroke="none">
<path d="M0 1165 l0 -1165 1080 0 1080 0 0 1165 0 1165 -1080 0 -1080 0 0
-1165z m1203 570 c72 -19 146 -56 192 -97 l36 -31 -42 -43 -41 -42 -44 33
c-68 52 -126 70 -229 70 -76 0 -99 -5 -147 -27 -195 -91 -279 -315 -188 -507
84 -177 291 -261 473 -192 16 6 30 11 33 11 2 0 4 -29 4 -65 l0 -64 -37 -11
c-264 -76 -547 91 -618 365 -65 255 98 530 356 599 71 19 181 20 252 1z m10
-173 c27 -12 61 -32 77 -45 l28 -24 -44 -43 c-42 -42 -44 -43 -63 -26 -25 23
-87 45 -126 46 -97 1 -194 -75 -214 -169 -43 -201 169 -339 337 -220 l42 30 0
-76 0 -76 -47 -22 c-71 -31 -180 -30 -253 4 -293 136 -270 534 35 636 57 18
169 11 228 -15z m197 -587 l0 -225 -59 0 -59 0 -5 43 c-7 56 -8 367 -1 390 4
14 17 17 65 17 l59 0 0 -225z m160 0 l0 -225 -59 0 -59 0 -7 173 c-4 96 -4
197 0 225 l7 52 59 0 59 0 0 -225z m-1352 -877 c14 5 15 4 2 -10 -9 -10 -17
-12 -21 -6 -4 6 -9 5 -12 -3 -3 -8 -4 -4 -4 8 1 14 5 19 10 14 5 -5 17 -7 25
-3z m78 3 c-18 -7 -18 -8 -3 -14 9 -3 17 -11 17 -16 0 -14 -29 -21 -36 -9 -4
6 -3 8 4 4 6 -3 13 -2 16 3 3 5 -1 11 -9 15 -23 8 -18 26 8 25 20 0 20 -1 3
-8z m31 -28 c-3 -10 -5 -4 -5 12 0 17 2 24 5 18 2 -7 2 -21 0 -30z m112 21 c4
3 7 -3 7 -13 0 -10 -6 -18 -13 -18 -8 0 -13 11 -12 26 0 14 3 20 6 13 2 -6 8
-10 12 -8z m-41 -5 c-9 -6 -8 -12 3 -25 13 -16 12 -16 -8 -6 -14 8 -24 9 -28
2 -9 -15 -25 -2 -25 20 0 14 7 18 35 17 19 -1 29 -4 23 -8z m1353 -13 c5 3 9
0 9 -6 0 -15 -23 -7 -26 8 -1 7 0 8 3 2 2 -5 9 -8 14 -4z m246 -8 c-3 -8 -6
-5 -6 6 -1 11 2 17 5 13 3 -3 4 -12 1 -19z m53 7 c0 -8 -4 -15 -10 -15 -5 0
-7 7 -4 15 4 8 8 15 10 15 2 0 4 -7 4 -15z m45 4 c11 -16 1 -19 -13 -3 -7 8
-8 14 -3 14 5 0 13 -5 16 -11z m-1971 -15 c3 -8 2 -12 -4 -9 -6 3 -10 10 -10
16 0 14 7 11 14 -7z m126 12 c0 -2 -8 -10 -17 -17 -16 -13 -17 -12 -4 4 13 16
21 21 21 13z m1370 -6 c0 -5 -2 -10 -4 -10 -3 0 -8 5 -11 10 -3 6 -1 10 4 10
6 0 11 -4 11 -10z m100 4 c0 -8 -19 -13 -24 -6 -3 5 1 9 9 9 8 0 15 -2 15 -3z
m80 -4 c0 -5 -5 -10 -11 -10 -5 0 -7 5 -4 10 3 6 8 10 11 10 2 0 4 -4 4 -10z
m25 0 c3 -5 1 -10 -4 -10 -6 0 -11 5 -11 10 0 6 2 10 4 10 3 0 8 -4 11 -10z
m85 0 c-20 -13 -33 -13 -25 0 3 6 14 10 23 10 15 0 15 -2 2 -10z"/>
<path d="M350 74 c0 -8 5 -12 10 -9 6 3 10 10 10 16 0 5 -4 9 -10 9 -5 0 -10
-7 -10 -16z"/>
</g>
</svg>
