<?xml version="1.0" standalone="no"?>
<!DOCTYPE svg PUBLIC "-//W3C//DTD SVG 20010904//EN"
 "http://www.w3.org/TR/2001/REC-SVG-20010904/DTD/svg10.dtd">
<svg version="1.0" xmlns="http://www.w3.org/2000/svg"
 width="225.000000pt" height="225.000000pt" viewBox="0 0 225.000000 225.000000"
 preserveAspectRatio="xMidYMid meet">

<g transform="translate(0.000000,225.000000) scale(0.100000,-0.100000)"
fill="#000000" stroke="none">
<path d="M975 2239 c-365 -46 -713 -302 -870 -642 -136 -294 -136 -650 0 -944
103 -224 306 -430 529 -538 373 -181 826 -140 1152 103 570 425 621 1235 108
1722 -248 236 -574 342 -919 299z m308 -194 c509 -89 850 -572 762 -1078 -70
-399 -391 -711 -791 -768 -162 -23 -361 6 -516 74 -137 61 -304 203 -388 330
-301 456 -161 1058 310 1331 186 109 409 148 623 111z"/>
<path d="M1020 1585 c-95 -26 -162 -65 -231 -134 -77 -77 -113 -146 -136 -257
-19 -93 -8 -183 32 -271 50 -111 177 -205 312 -233 69 -15 214 -8 338 15 52
10 120 15 163 13 l72 -3 0 197 0 198 -140 0 -140 0 0 -108 c0 -143 -2 -146
-106 -140 -114 7 -174 42 -220 128 -14 26 -19 57 -19 120 0 71 4 94 26 141 31
66 90 129 151 160 69 36 177 38 282 5 46 -14 87 -26 90 -26 3 0 6 27 6 60 l0
61 -87 42 c-86 41 -88 41 -212 44 -89 2 -142 -2 -181 -12z"/>
</g>
</svg>
