<?xml version="1.0" standalone="no"?>
<!DOCTYPE svg PUBLIC "-//W3C//DTD SVG 20010904//EN"
 "http://www.w3.org/TR/2001/REC-SVG-20010904/DTD/svg10.dtd">
<svg version="1.0" xmlns="http://www.w3.org/2000/svg"
 width="225.000000pt" height="225.000000pt" viewBox="0 0 225.000000 225.000000"
 preserveAspectRatio="xMidYMid meet">

<g transform="translate(0.000000,225.000000) scale(0.100000,-0.100000)"
fill="#000000" stroke="none">
<path d="M1031 1939 c-74 -9 -224 -50 -205 -56 6 -2 36 6 69 17 32 11 96 23
142 27 46 3 83 10 83 14 0 5 -3 8 -7 8 -5 -1 -42 -5 -82 -10z"/>
<path d="M1163 1933 c15 -2 37 -2 50 0 12 2 0 4 -28 4 -27 0 -38 -2 -22 -4z"/>
<path d="M1280 1920 c19 -4 49 -10 65 -14 27 -6 27 -5 -5 8 -19 8 -48 14 -65
14 -29 0 -29 -1 5 -8z"/>
<path d="M945 1901 c-38 -10 -82 -23 -96 -29 -15 -6 -37 -9 -50 -6 -17 3 -19
2 -7 -3 14 -6 3 -16 -49 -42 -74 -39 -213 -168 -258 -241 -83 -133 -114 -230
-122 -377 -8 -148 22 -313 56 -313 13 0 13 -2 2 -9 -7 -5 -10 -14 -7 -20 4 -6
12 -9 17 -6 5 4 9 -3 9 -14 0 -12 5 -21 11 -21 6 0 9 7 5 15 -3 8 -13 54 -22
102 -19 102 -15 244 11 345 15 58 76 195 107 242 39 59 119 146 134 146 7 0
14 10 18 23 5 18 8 20 16 7 9 -15 11 -13 14 13 1 6 12 11 25 9 18 -2 22 2 17
14 -4 11 -2 15 8 11 8 -3 20 1 27 9 7 8 20 12 30 9 14 -5 17 -2 13 9 -3 9 -1
16 5 16 6 0 11 -5 11 -11 0 -6 7 -3 16 5 8 9 24 16 35 16 10 0 19 5 19 11 0 6
6 9 14 6 8 -3 41 0 75 7 34 7 72 11 86 10 14 -1 25 3 25 9 0 8 3 8 8 2 9 -13
21 -15 84 -17 34 0 46 -4 36 -10 -9 -7 -6 -8 11 -4 13 3 37 -2 53 -10 16 -8
38 -12 49 -9 12 4 21 1 25 -9 3 -9 12 -16 20 -16 8 0 14 -4 14 -10 0 -5 9 -10
20 -10 11 0 19 -6 18 -12 -2 -7 6 -13 18 -13 31 -1 183 -146 216 -208 114
-212 146 -370 112 -557 -9 -52 -17 -107 -17 -122 0 -15 -4 -25 -8 -22 -5 3
-10 0 -10 -5 -3 -20 -5 -26 -17 -48 -22 -39 -4 -25 24 18 32 51 72 156 85 223
15 78 11 257 -7 334 -66 270 -291 493 -568 562 -102 26 -262 26 -361 1z"/>
<path d="M1380 1897 c0 -3 15 -10 32 -16 18 -6 28 -7 23 -2 -12 10 -55 25 -55
18z"/>
<path d="M1450 1871 c0 -5 7 -12 16 -15 14 -5 15 -4 4 9 -14 17 -20 19 -20 6z"/>
<path d="M730 1839 l-25 -20 33 16 c17 8 32 18 32 20 0 10 -16 4 -40 -16z"/>
<path d="M654 1791 c-21 -15 -48 -39 -59 -52 -11 -13 -2 -8 20 11 22 19 51 43
65 52 14 9 22 17 19 17 -3 1 -24 -12 -45 -28z"/>
<path d="M1600 1781 c14 -11 30 -21 35 -21 11 0 -7 14 -40 31 -13 7 -12 3 5
-10z"/>
<path d="M1688 1702 c26 -26 49 -47 51 -45 6 4 -60 72 -81 84 -10 5 4 -12 30
-39z"/>
<path d="M539 1693 c-13 -16 -12 -17 4 -4 9 7 17 15 17 17 0 8 -8 3 -21 -13z"/>
<path d="M499 1643 c-13 -16 -12 -17 4 -4 9 7 17 15 17 17 0 8 -8 3 -21 -13z"/>
<path d="M1058 1548 c-13 -13 -17 -17 -8 -10 9 6 22 12 28 12 6 0 14 5 17 10
11 19 -14 10 -37 -12z"/>
<path d="M1087 1541 c-39 -25 -61 -65 -88 -153 -25 -85 -35 -255 -21 -363 8
-68 9 -66 9 55 0 69 6 154 13 190 13 74 44 150 59 150 6 0 11 8 11 17 0 9 3
13 7 10 3 -4 20 2 37 12 28 17 66 20 139 12 4 -1 6 -7 5 -13 -2 -7 4 -13 12
-13 8 0 24 -11 35 -25 11 -14 30 -36 43 -50 27 -29 53 -75 46 -82 -2 -3 7 -25
21 -49 13 -24 25 -52 25 -61 0 -18 20 -23 65 -19 35 3 37 26 3 31 -29 5 -33
10 -43 55 -16 71 -81 189 -132 240 -69 70 -185 96 -246 56z"/>
<path d="M1366 1477 c3 -10 9 -15 12 -12 3 3 0 11 -7 18 -10 9 -11 8 -5 -6z"/>
<path d="M1400 1426 c0 -2 8 -10 18 -17 15 -13 16 -12 3 4 -13 16 -21 21 -21
13z"/>
<path d="M316 1342 c-3 -5 -7 -30 -9 -58 -4 -48 -4 -46 13 29 8 36 6 46 -4 29z"/>
<path d="M636 1325 c-3 -9 -6 -22 -5 -28 0 -7 5 -1 10 12 5 13 8 26 5 28 -2 2
-6 -3 -10 -12z"/>
<path d="M891 1324 c0 -11 3 -14 6 -6 3 7 2 16 -1 19 -3 4 -6 -2 -5 -13z"/>
<path d="M1931 1324 c0 -11 3 -14 6 -6 3 7 2 16 -1 19 -3 4 -6 -2 -5 -13z"/>
<path d="M657 1309 c-4 -16 -3 -18 9 -8 16 13 19 29 5 29 -5 0 -11 -9 -14 -21z"/>
<path d="M702 1305 c-11 -12 -10 -15 3 -15 8 0 15 7 15 15 0 18 -2 18 -18 0z"/>
<path d="M1942 1280 c0 -14 2 -19 5 -12 2 6 2 18 0 25 -3 6 -5 1 -5 -13z"/>
<path d="M621 1254 c0 -11 3 -14 6 -6 3 7 2 16 -1 19 -3 4 -6 -2 -5 -13z"/>
<path d="M1058 1051 c4 -29 23 -42 67 -45 11 0 23 -8 26 -16 3 -8 12 -15 20
-15 11 0 15 -22 20 -90 5 -79 6 -74 5 43 -1 153 -1 152 -87 152 l-56 0 5 -29z"/>
<path d="M1570 1061 c-5 -11 -9 -35 -9 -53 1 -18 3 -25 6 -15 2 9 9 17 14 17
6 0 7 -4 4 -10 -3 -6 1 -7 9 -4 9 3 16 10 16 15 0 5 6 9 14 9 12 0 46 40 46
55 0 3 -20 5 -45 5 -34 0 -47 -5 -55 -19z"/>
<path d="M670 856 c0 -2 8 -10 18 -17 15 -13 16 -12 3 4 -13 16 -21 21 -21 13z"/>
<path d="M653 840 c4 -8 10 -23 13 -32 4 -10 10 -18 15 -18 5 0 9 -4 9 -10 0
-5 20 -31 45 -57 24 -26 45 -51 45 -55 0 -5 5 -8 12 -8 7 0 22 -11 33 -23 11
-13 31 -30 45 -37 23 -12 24 -12 11 4 -13 16 -12 16 15 5 16 -7 34 -17 41 -22
7 -5 17 -6 22 -3 5 4 12 2 16 -3 8 -14 98 -11 107 3 5 8 13 8 27 -1 16 -10 20
-9 25 4 4 11 14 13 31 9 26 -7 71 15 58 27 -3 4 3 7 15 7 12 0 22 4 22 9 0 5
25 15 55 22 48 11 60 10 90 -4 19 -9 35 -24 35 -32 0 -9 4 -14 9 -10 5 3 17
-3 26 -12 17 -16 19 -15 46 15 35 39 36 52 7 52 -12 0 -35 16 -55 40 -22 25
-48 43 -73 50 -36 10 -45 7 -138 -41 -96 -50 -102 -52 -200 -57 -87 -4 -112
-1 -173 18 -76 25 -165 83 -213 141 -16 19 -26 27 -23 19z m547 -230 c0 -5 -5
-10 -11 -10 -5 0 -7 5 -4 10 3 6 8 10 11 10 2 0 4 -4 4 -10z"/>
<path d="M716 807 c3 -10 9 -15 12 -12 3 3 0 11 -7 18 -10 9 -11 8 -5 -6z"/>
<path d="M450 791 c5 -9 16 -25 25 -36 15 -18 16 -18 11 -2 -3 10 -6 23 -6 28
0 6 -5 7 -12 3 -7 -5 -9 -2 -6 8 4 8 0 15 -7 15 -10 0 -11 -5 -5 -16z"/>
<path d="M1340 780 c-9 -6 -10 -10 -3 -10 6 0 15 5 18 10 8 12 4 12 -15 0z"/>
<path d="M1408 773 c7 -3 16 -2 19 1 4 3 -2 6 -13 5 -11 0 -14 -3 -6 -6z"/>
<path d="M765 759 c8 -11 95 -63 99 -58 2 2 -21 18 -50 36 -30 17 -52 27 -49
22z"/>
<path d="M1280 755 c-14 -8 -20 -14 -15 -14 6 0 21 6 35 14 14 8 21 14 15 14
-5 0 -21 -6 -35 -14z"/>
<path d="M496 715 c4 -8 11 -15 16 -15 6 0 5 6 -2 15 -7 8 -14 15 -16 15 -2 0
-1 -7 2 -15z"/>
<path d="M895 690 c11 -5 27 -9 35 -9 9 0 8 4 -5 9 -11 5 -27 9 -35 9 -9 0 -8
-4 5 -9z"/>
<path d="M978 673 c12 -2 32 -2 45 0 12 2 2 4 -23 4 -25 0 -35 -2 -22 -4z"/>
<path d="M505 560 c10 -11 20 -20 23 -20 3 0 -3 9 -13 20 -10 11 -20 20 -23
20 -3 0 3 -9 13 -20z"/>
<path d="M494 531 c11 -11 16 -21 13 -21 -3 0 16 -21 43 -46 27 -26 47 -51 43
-57 -3 -6 -1 -7 5 -3 7 4 12 3 12 -1 0 -5 10 -13 23 -18 12 -6 21 -17 19 -24
-1 -7 2 -9 9 -6 6 4 23 -6 38 -22 15 -16 32 -28 39 -25 7 2 12 -3 12 -12 0 -9
7 -13 20 -11 12 2 20 -2 20 -10 0 -9 6 -12 16 -8 10 4 22 0 28 -8 13 -18 50
-34 40 -18 -9 15 36 1 57 -17 8 -8 29 -14 45 -14 16 0 36 -4 44 -10 9 -5 19
-5 27 1 7 6 18 7 25 2 16 -10 150 -13 163 -3 6 4 25 8 44 8 19 0 37 6 42 13 4
6 14 9 23 6 9 -4 32 2 51 13 20 11 39 19 43 17 5 -1 33 13 63 32 30 19 57 34
62 33 4 -1 7 4 7 11 0 15 72 77 89 77 6 0 10 6 8 13 -1 6 6 11 15 11 10 -1 17
1 16 5 -2 19 3 32 11 27 5 -3 11 4 14 15 3 12 10 18 16 14 7 -3 8 0 5 9 -4 9
1 18 10 22 9 3 16 10 16 15 0 5 -35 -20 -77 -56 -88 -74 -220 -144 -333 -175
-165 -47 -387 -35 -556 30 -97 37 -148 67 -247 147 -45 37 -73 56 -63 44z"/>
<path d="M630 506 c0 -2 8 -10 18 -17 15 -13 16 -12 3 4 -13 16 -21 21 -21 13z"/>
<path d="M1610 450 c-9 -6 -10 -10 -3 -10 6 0 15 5 18 10 8 12 4 12 -15 0z"/>
<path d="M644 441 c7 -11 46 -35 46 -28 0 3 -12 12 -26 22 -15 9 -23 12 -20 6z"/>
<path d="M1524 394 c-18 -14 -18 -14 6 -3 31 14 36 19 24 19 -6 0 -19 -7 -30
-16z"/>
<path d="M755 375 c22 -14 46 -25 54 -25 8 0 -8 11 -35 25 -62 32 -71 32 -19
0z"/>
<path d="M1460 365 c-14 -8 -20 -14 -15 -14 6 0 21 6 35 14 14 8 21 14 15 14
-5 0 -21 -6 -35 -14z"/>
<path d="M900 320 c34 -11 60 -11 35 0 -11 5 -29 8 -40 8 -16 0 -15 -2 5 -8z"/>
<path d="M1348 323 c7 -3 16 -2 19 1 4 3 -2 6 -13 5 -11 0 -14 -3 -6 -6z"/>
<path d="M1308 313 c7 -3 16 -2 19 1 4 3 -2 6 -13 5 -11 0 -14 -3 -6 -6z"/>
<path d="M973 303 c9 -2 23 -2 30 0 6 3 -1 5 -18 5 -16 0 -22 -2 -12 -5z"/>
<path d="M1243 303 c9 -2 25 -2 35 0 9 3 1 5 -18 5 -19 0 -27 -2 -17 -5z"/>
<path d="M1088 293 c23 -2 61 -2 85 0 23 2 4 4 -43 4 -47 0 -66 -2 -42 -4z"/>
</g>
</svg>
